<svg xmlns="http://www.w3.org/2000/svg" width="75.06" height="18.561" viewBox="0 0 75.06 18.561"><defs><style>.a{fill:#adb8b8;}</style></defs><path class="a" d="M531.1,389.938c.01-.017.022-.017.036,0l-.021.017Z" transform="translate(-491.472 -389.326)"/><path class="a" d="M284.722,438.387c.228-.689.444-1.341.655-1.987a.158.158,0,0,1,.148-.11,14.819,14.819,0,0,1,3.453-.337,4.7,4.7,0,0,1,2.322.648,3.074,3.074,0,0,1,1.462,2.6,9.345,9.345,0,0,1-.158,1.883c-.188,1.267-.383,2.532-.565,3.8a.3.3,0,0,1-.178.245,7.347,7.347,0,0,1-2.377.767,10.655,10.655,0,0,1-3.1.079,3.729,3.729,0,0,1-2.287-1.008,2.8,2.8,0,0,1,.226-4.12,4.972,4.972,0,0,1,2.195-.958,12.781,12.781,0,0,1,3.645-.128c.152.011.185-.035.192-.171a1.679,1.679,0,0,0-1.519-1.818,5.959,5.959,0,0,0-2.062.095A12.538,12.538,0,0,0,284.722,438.387Zm4.265,2.869a8.139,8.139,0,0,0-1.3.1,2.647,2.647,0,0,0-1.288.509,1.332,1.332,0,0,0-.452,1.329,1.126,1.126,0,0,0,.832.878,2.462,2.462,0,0,0,.6.13,6.607,6.607,0,0,0,2.232-.241.205.205,0,0,0,.178-.206c.1-.745.2-1.491.31-2.235.019-.129-.024-.153-.131-.173A6.456,6.456,0,0,0,288.987,441.256Z" transform="translate(-263.214 -431.715)"/><path class="a" d="M650.477,443.319c-.126.383-.237.726-.353,1.069-.093.282-.192.561-.281.845a.224.224,0,0,1-.175.177,9.545,9.545,0,0,1-3.675.339,4.113,4.113,0,0,1-3.313-2.091,4.637,4.637,0,0,1-.523-2.589,5.815,5.815,0,0,1,2.164-4.253,5.035,5.035,0,0,1,2.794-1.12,5.765,5.765,0,0,1,2.129.138,3.426,3.426,0,0,1,2.556,2.97,8.688,8.688,0,0,1-.137,2.5c-.017.1-.069.107-.147.107h-6.669c-.148,0-.192.036-.194.189a2.1,2.1,0,0,0,1.883,2.268,6.8,6.8,0,0,0,2.652-.17A10.229,10.229,0,0,0,650.477,443.319Zm-3.218-3.518h1.767c.539,0,.539,0,.558-.539a1.691,1.691,0,0,0-1.717-1.865,2.823,2.823,0,0,0-2.839,2.264c-.026.116,0,.144.118.144C645.848,439.8,646.549,439.8,647.259,439.8Z" transform="translate(-593.758 -431.452)"/><path class="a" d="M764.17,446.158a10.932,10.932,0,0,1-3.406-.568c-.11-.038-.139-.069-.1-.189q.27-.819.518-1.647c.041-.136.089-.125.2-.073a5.546,5.546,0,0,0,3.4.48,1.723,1.723,0,0,0,.751-.308.837.837,0,0,0,.093-1.3,2.978,2.978,0,0,0-.669-.467c-.6-.338-1.217-.654-1.79-1.045a2.51,2.51,0,0,1,.164-4.213,4.956,4.956,0,0,1,2.189-.722,9.648,9.648,0,0,1,3.8.462c.114.034.143.065.1.185-.187.518-.367,1.04-.537,1.564-.045.138-.1.128-.205.079a5.617,5.617,0,0,0-2.485-.536,2.075,2.075,0,0,0-1.175.325.812.812,0,0,0-.339.924.929.929,0,0,0,.365.465,9.546,9.546,0,0,0,1.183.679,9.875,9.875,0,0,1,1.4.885,2.568,2.568,0,0,1-.079,4,4.968,4.968,0,0,1-2.748.991C764.548,446.148,764.3,446.152,764.17,446.158Z" transform="translate(-702.916 -431.83)"/><path class="a" d="M872.386,446.122a10.956,10.956,0,0,1-3.361-.562c-.125-.042-.158-.079-.111-.211.178-.535.347-1.073.511-1.612.039-.131.079-.15.207-.088a5.574,5.574,0,0,0,3.385.481,1.86,1.86,0,0,0,.695-.259.84.84,0,0,0,.145-1.375,2.889,2.889,0,0,0-.613-.422,20.526,20.526,0,0,1-1.88-1.1,2.488,2.488,0,0,1-.362-3.68,3.86,3.86,0,0,1,2.069-1.1,7.747,7.747,0,0,1,3.147.014c.442.079.874.2,1.306.315.144.04.2.083.135.247-.182.495-.348.995-.509,1.5-.045.138-.09.158-.225.1a5.651,5.651,0,0,0-2.45-.536,2.187,2.187,0,0,0-1.119.272.825.825,0,0,0-.074,1.43,10.148,10.148,0,0,0,1.277.733,8.331,8.331,0,0,1,1.4.916,2.573,2.573,0,0,1-.139,3.9,4.642,4.642,0,0,1-2.2.94A8.128,8.128,0,0,1,872.386,446.122Z" transform="translate(-802.624 -431.794)"/><path class="a" d="M423.847,443.748a4.483,4.483,0,0,1-.217.672c-.143.425-.295.846-.436,1.272a.208.208,0,0,1-.186.158,11.942,11.942,0,0,1-2.865.185,4.4,4.4,0,0,1-3.511-1.853,4.5,4.5,0,0,1-.754-2.871,5.547,5.547,0,0,1,2.16-4.2,5.191,5.191,0,0,1,2.64-1.046,8.991,8.991,0,0,1,3.575.214c.222.061.437.146.655.217.079.025.1.059.07.145-.186.544-.371,1.09-.545,1.638-.039.121-.093.1-.171.066a5.664,5.664,0,0,0-1.747-.409,3.521,3.521,0,0,0-3.239,1.365,3.22,3.22,0,0,0-.064,3.714,2.835,2.835,0,0,0,1.965,1.058,6.333,6.333,0,0,0,2.5-.3c.052-.015.1-.025.158-.038Z" transform="translate(-385.331 -431.741)"/><path class="a" d="M537.692,443.786c-.181.522-.39,1.039-.539,1.572a.721.721,0,0,1-.715.616,9.816,9.816,0,0,1-3.549-.062A4.15,4.15,0,0,1,529.713,442a5.521,5.521,0,0,1,2.381-5.011,5.092,5.092,0,0,1,2.4-.879,9.018,9.018,0,0,1,3.574.213c.216.059.424.147.639.21.113.033.116.084.079.183-.181.528-.36,1.055-.528,1.587-.04.127-.088.122-.192.083a5.51,5.51,0,0,0-2.564-.394,3.257,3.257,0,0,0-2.959,2.638,2.769,2.769,0,0,0,.83,2.79,3.139,3.139,0,0,0,2.375.715,7.559,7.559,0,0,0,1.819-.347C537.606,443.786,537.637,443.757,537.692,443.786Z" transform="translate(-490.185 -431.791)"/><path class="a" d="M46.12,392.155,36.3,382.33v1.508l8.317,8.317,0,0-7.2,7.2-.009-.009-7.2-7.2-.006-.006,3.534-3.534H32.2l-3.537,3.537,0,0,8.737,8.737,0,0,8.725-8.725Z" transform="translate(-28.66 -382.33)"/><path class="a" d="M66.137,414.61v1.508l5.774,5.774-4.652,4.652L62.6,421.889l-.006-.006,3.534-3.534H64.6l-3.537,3.537,0,0,5.426,5.426.759.759.771-.771,5.405-5.406Z" transform="translate(-58.505 -412.064)"/><path class="a" d="M100.3,464.261l-2.881-2.884-.767-.767-.754.754L93,464.258h0l2.9,2.9.759.759.77-.771,2.88-2.875Zm-3.628,2.13-2.13-2.13-.006-.006,2.124-2.124,2.13,2.13h0Z" transform="translate(-87.925 -454.436)"/></svg>