<?xml version="1.0" encoding="UTF-8" standalone="no"?>
<svg
   xmlns:dc="http://purl.org/dc/elements/1.1/"
   xmlns:cc="http://creativecommons.org/ns#"
   xmlns:rdf="http://www.w3.org/1999/02/22-rdf-syntax-ns#"
   xmlns:svg="http://www.w3.org/2000/svg"
   xmlns="http://www.w3.org/2000/svg"
   xmlns:sodipodi="http://sodipodi.sourceforge.net/DTD/sodipodi-0.dtd"
   xmlns:inkscape="http://www.inkscape.org/namespaces/inkscape"
   inkscape:version="1.0 (4035a4fb49, 2020-05-01)"
   sodipodi:docname="apps.svg"
   id="svg4"
   version="1.1"
   viewBox="0 0 24 24"
   enable-background="new 0 0 24 24">
  <metadata
     id="metadata10">
    <rdf:RDF>
      <cc:Work
         rdf:about="">
        <dc:format>image/svg+xml</dc:format>
        <dc:type
           rdf:resource="http://purl.org/dc/dcmitype/StillImage" />
      </cc:Work>
    </rdf:RDF>
  </metadata>
  <defs
     id="defs8" />
  <sodipodi:namedview
     inkscape:current-layer="svg4"
     inkscape:window-maximized="1"
     inkscape:window-y="-8"
     inkscape:window-x="-8"
     inkscape:cy="12"
     inkscape:cx="12"
     inkscape:zoom="18.916667"
     showgrid="false"
     id="namedview6"
     inkscape:window-height="705"
     inkscape:window-width="1366"
     inkscape:pageshadow="2"
     inkscape:pageopacity="0"
     guidetolerance="10"
     gridtolerance="10"
     objecttolerance="10"
     borderopacity="1"
     bordercolor="#666666"
     pagecolor="#ffffff"
     inkscape:document-rotation="0" />
  <path
     style="fill:#158269;fill-opacity:1;opacity:0.5"
     id="path2"
     d="M10,2H3C2.4,2,2,2.4,2,3v7c0,0.6,0.4,1,1,1h7c0.6,0,1-0.4,1-1V3C11,2.4,10.6,2,10,2z M10,13H3c-0.6,0-1,0.4-1,1v7c0,0.6,0.4,1,1,1h7c0.6,0,1-0.4,1-1v-7C11,13.4,10.6,13,10,13z M21,2h-7c-0.6,0-1,0.4-1,1v7c0,0.6,0.4,1,1,1h7c0.6,0,1-0.4,1-1V3C22,2.4,21.6,2,21,2z M21,13h-7c-0.6,0-1,0.4-1,1v7c0,0.6,0.4,1,1,1h7c0.6,0,1-0.4,1-1v-7C22,13.4,21.6,13,21,13z"
     fill="#6563ff" />
</svg>
