<svg xmlns="http://www.w3.org/2000/svg" width="61.495" height="62.237" viewBox="0 0 61.495 62.237">
  <path id="Subtraction_2" data-name="Subtraction 2" d="M61.5,62.237H0V0H61.5V62.236Zm-49.529-26.6a5.41,5.41,0,0,0-2.437.589c-1.555.7-2.24,2.839-2.229,4.654.013,2.074.847,3.772,2.126,4.326a5.883,5.883,0,0,0,2.543.477c1.452,0,2.749-.336,2.952-.766V39.83H11.464v1.338h1.522v2.678a3.032,3.032,0,0,1-1.317.335c-1.68,0-2.589-1.793-2.591-3.481a3.906,3.906,0,0,1,.741-2.393,2.861,2.861,0,0,1,2.358-1.088,6.123,6.123,0,0,1,2.353.551V36.225A6.222,6.222,0,0,0,11.966,35.636Zm11.084.157-7.121.063V37.4h2.717v8.175H20.52V37.337h2.53ZM35.92,40.622c-2.182,0-3.355.616-3.588,1.884a2.75,2.75,0,0,0,.514,2.247,2.4,2.4,0,0,0,1.854.77,3.154,3.154,0,0,0,2.3-.978v.8h1.728V39.417c-.241-1.067-1.3-1.7-2.822-1.7a7.339,7.339,0,0,0-2.981.7V39.87l.354-.1A9.106,9.106,0,0,1,35.6,39.3a1.319,1.319,0,0,1,1.027.348,1.24,1.24,0,0,1,.216,1C36.52,40.633,36.211,40.622,35.92,40.622Zm-8.383-5.035-3.293.062v9.844h4.919a2.984,2.984,0,0,0,1.908-3.106,2.236,2.236,0,0,0-1.908-2.105A1.97,1.97,0,0,0,30.841,38.1C30.778,36.94,29.874,35.587,27.537,35.587ZM40.36,37.832v7.6h1.933l.022-5.271A3.538,3.538,0,0,1,44.4,39.4a1.06,1.06,0,0,1,1.147.757v5.231h1.934V39.85a2.284,2.284,0,0,0-2.4-2.088,5.961,5.961,0,0,0-2.894.935v-.865Zm13.192-.083h0l-2.53,3.4L53.7,45.328l2.326-.061-2.943-4.016,2.655-3.44-2.182-.061Zm-4.63-2.492h0V45.328h1.914V35.257H48.921ZM34.987,12.068v15.8H50.752v-15.8Zm.207,32.008h0a1.084,1.084,0,0,1-.991-.487,1.377,1.377,0,0,1,.188-1.372,1.62,1.62,0,0,1,1.294-.416,4.429,4.429,0,0,1,1.2.169v1.3A2.36,2.36,0,0,1,35.194,44.077Zm-7.346-.149H26.1V41.086h1.789a1.474,1.474,0,0,1,1.254,1.589A1.2,1.2,0,0,1,27.848,43.927Zm-.023-4.242H26.1V37.152h1.789a1.082,1.082,0,0,1,.914,1.233C28.765,38.984,28.382,39.651,27.825,39.686Z" fill="#adb8b8"/>
</svg>
