<?xml version="1.0" encoding="UTF-8" standalone="no"?>
<svg width="21px" height="22px" viewBox="0 0 21 22" version="1.1" xmlns="http://www.w3.org/2000/svg" xmlns:xlink="http://www.w3.org/1999/xlink">
    <!-- Generator: Sketch 48.2 (47327) - http://www.bohemiancoding.com/sketch -->
    <title>iconspace_Computer_25px</title>
    <desc>Created with Sketch.</desc>
    <defs></defs>
    <g id="GLYPH--COLOR" stroke="none" stroke-width="1" fill="none" fill-rule="evenodd" transform="translate(-127.000000, -127.000000)">
        <g id="iconspace_Computer_25px" transform="translate(125.000000, 125.000000)">
            <polygon id="Computer" points="0 0 25 0 25 25 0 25"></polygon>
            <path d="M23,14 L2,14 L2,4.5 C2,3.11928813 3.11928813,2 4.5,2 L20.5,2 C21.8807119,2 23,3.11928813 23,4.5 L23,14 Z M15.4198039,19 L16.2198039,23 L9,23 L9.8,19 L15.4198039,19 Z" id="Computer" fill="#3B5AFB"></path>
            <path d="M23,15 L23,15.5 C23,16.8807119 21.8807119,18 20.5,18 L4.5,18 C3.11928813,18 2,16.8807119 2,15.5 L2,15 L23,15 Z M17.5,21.5057678 C17.9142136,21.5057678 18.25,21.8415543 18.25,22.2557678 C18.25,22.6699814 17.9142136,23.0057678 17.5,23.0057678 L7.5,23.0057678 C7.08578644,23.0057678 6.75,22.6699814 6.75,22.2557678 C6.75,21.8415543 7.08578644,21.5057678 7.5,21.5057678 L17.5,21.5057678 Z" id="Computer" fill="#44D5E9" fill-rule="nonzero"></path>
        </g>
    </g>
</svg>