<svg id="Layer_1" data-name="Layer 1" xmlns="http://www.w3.org/2000/svg" viewBox="0 0 100 100"><defs><style>.cls-1{fill:#158269;}</style></defs><title>Okra Logo</title><path class="cls-1" d="M11.5,65.69H10.11l-.49-.1h0A42.85,42.85,0,0,1,6.69,50,46.65,46.65,0,0,1,7,45.24l0,.16.22.53.21.61.44.84.19.48.22.38.55.8.31.38.27.39,2,2,.36.31.82.55L13,53l1.61,1,.6.22,1.28.48.43.22.41.14.48.12.48.15.44.12.48.09.55.07.48,0,.32.1.17.21-.08.44-.21.43-.15.48L20,58l-.27.48-.21.48-.27.43-.22.36-.57.87-.22.26-.34.49-.26.43-.27.38-.31.36-1.08,1.09-.75.53-.41.26-.81.48-.44.22-.57.22-.49.16-.48,0Z"/><polygon class="cls-1" points="10.8 43.43 10.68 42.95 10.63 42.42 10.63 40.98 10.76 40.01 10.85 39.46 11.02 38.76 11.29 37.97 11.55 37.32 11.77 36.91 12.25 36.36 12.9 35.78 13.64 35.3 14.44 34.87 15.26 34.6 15.93 34.48 16.48 34.43 17.18 34.48 18.02 34.6 18.72 34.77 19.2 34.96 19.63 35.18 20 35.47 20.43 35.78 20.77 36.14 21.03 36.43 21.29 36.79 21.56 37.22 21.78 37.7 21.99 38.28 22.26 38.93 22.43 39.41 22.62 40.38 22.74 41.07 22.83 41.72 22.91 42.25 22.95 42.9 22.95 45.79 22.83 46.41 22.83 46.9 22.69 48.36 22.62 48.89 22.57 49.52 22.47 50.22 22.14 51.66 21.94 52.26 21.56 52.62 21.13 52.7 20.64 52.57 20.11 52.48 18.77 52.05 18.24 51.83 17.93 51.73 17.32 51.47 17.01 51.35 16.48 51.08 16.1 50.82 15.66 50.55 15.3 50.29 14.87 49.95 14.48 49.64 13.74 48.89 13.52 48.63 13.16 48.24 12.51 47.5 12.29 47.06 12.03 46.58 11.77 46.22 11.55 45.79 11.33 45.31 11.16 44.88 10.85 43.91 10.8 43.43"/><path class="cls-1" d="M89.17,68.5A43.33,43.33,0,0,1,11,68.91h.14l.49-.07.55,0,.31-.05.53,0,.48-.17.48-.1.48-.17.44-.12L15.4,68l.43-.22.48-.26.65-.39.58-.31.43-.27.75-.65.7-.69.31-.27.39-.36.36-.34.33-.36.27-.43.65-.75.26-.38.32-.48.21-.27.53-.86.22-.48.26-.49.17-.26.79-1.61.27-.63.17-.48.43-.87.31-.26.44-.1.48-.07.53-.09.55-.17.48-.1.41-.12.43-.14.53-.29.34-.1.53-.22.43-.16.48-.2,1-.48.26-.17.53-.21.39-.24-.05.14-.1.48-.34,1-.09.4-.1.49-.17.48-.12.48-.09.43-.22,1-.17.48-.19.92-.17.48-.22,1,0,.48-.12.44-.05.48-.17.48-.1.48-.17.48,0,.48-.1.44-.17.48-.09.48-.17.48-.05.48-.22,1,.05.65.27.48.48.22.65.1.84,0,.91-.22.7-.43.39-.48.21-.48,0-.48.1-.49,0-.48L35,64l.1-.58.12-.29.14-.57.07-.49.1-.48.1-.43.17-.48.12-.48L36,59.7l.12-.48.14-.7.17-.65.17-.48.22-.48.41-.85.17-.48.26-.43.22-.43.31-.44.34-.48.21-.26.32-.44.31-.36.26-.38L40,52l.48-.44.7-.57.74-.56.44-.26.38-.27.41-.21.48-.22.43-.14,1-.22L45.6,49l.48.12.43.17.43.26.32.36.17.65,0,.65-.14.48-.17.41-.22.43-.26.44-.27.38-.33.36-.63.65-1.92,1.45-.6.36-.53.38-1.35.65-.41.27-.51.21-.52.32-.37.38-.16.48v.48l0,.49v1.49l.12,1,0,.53.05.48.22,1,.17.48.14.44.43.91.53.87.29.36.36.31.39.29.41.26.43.22.48.15.43.16.48.05.61,0h.89l.48,0,.48-.17.91-.26.44-.15.86-.55.75-.53.7-.7.36-.31.43-.43,1.18-1.33L52.5,64l.27-.39.82-1.27.36-.53.38-.6.53-.84.22-.48.26-.61.39-.74.14-.32L56,58l.14-.27.05-.09.21-.51.27-.53L57,56l.29-.65.2-.49.28-.6.27-.62.14-.48.17-.44.17-.48L59,51l.15-.48.12-.44.09-.48.17-.48.1-.48.21-.48.44-.12.43.33.31.36.87,1,.31.43.53.87.12.62-.17.82-.26.58-.58.86-.43.75-.32.43-.43.58-.34.58-.26.5-.36.53-.39.58L59,58.3l-.31.6-.27.58-.21.48-.17.43-.17.49-.22,1.92v.48l.07.48.1.48.1.53.12.48.21.44.22.48.26.38.32.44.33.31.36.31.8.53.55.29.44.15,1,.21.7,0h1.23l.53-.1.43-.12.48-.14.44-.22.48-.21.86-.44.48-.31.41-.31.65-.65.39-.32.62-.77.39-.52.43-.58.63-.87.26-.41,0,.36.09.7.07.53.15.7.34.79.31.6.26.44.27.36.74.65.39.26.43.17.48.15.63.16.65.1.53.07,1-.12.7-.17.86-.26.8-.36.6-.39.43-.26.36-.27.39-.31.31-.34.39-.31.26-.38.31-.36L84,65l.34-.36.53-.75.52-.86.27-.39.17.12,0,.65-.07.68v.55l.07.7.14.62.17.48.36.61.39.52.38.32.36.26.49.17.65.17Z"/><path class="cls-1" d="M93.19,47l-1.32-.6-.58-.15-.48-.12-1.18-.21-1.23-.1-1.08,0h-.65l-.48,0-1.32.1-.53.16-.65.17-.65.19-.53.29-.6.32-.63.26-.48.22-.39.26L80,48l-.75.6-.57.41-.48.48-.75.65-.38.43-.22.22-.7.79-.31.39-.53.74-.27.44-.28.36-.27.43L73.2,56.54l0,.1-.14.43-.22.44,0,.05-.32.52-.14.34-.27.48-.21.41-.27.43-.26.49-.29.38-.79,1.28-1,1.13-.31.43-.34.31-.36.32-.43.33-.79.53-.39.27-.48.21-.48.17-.48.1h-1l-.56-.1-.41-.26L62.85,65l-.27-.48-.26-.43L62.1,63v-.53l0-.48.12-.48.1-.56.12-.48.14-.41.17-.48.92-1.83.26-.43.31-.43.27-.41.33-.44.27-.38.26-.43.32-.37.53-.86.33-.36.22-.44.14-.48.08-.48-.17-.7-.17-.65-.15-.48L66,49.59l-.31-.38-.39-.32-.36-.43-.21-.26-.39-.44-.7-.7-.36-.31-.6-.7-.36-.43-.39-.31-.36-.39-.26-.36-.12-.43V43.7l.12-.53V41.72l-.17-.48-.22-.43-.31-.31-.43-.29-.48-.1h-.48l-.49.1-.43.21-.38.34-.32.36-.26.39-.22.48-.09.48V43l0,.48.49,1.44.43.87.09.41v.48l-.09.55-.17.49-.1.48-.12.41-.09.48-.22.48-.12.48-.14.51-.12.48-.44,1-.14.41-.17.48-.22.48-.17.48-.19.43-.21.53-.17.34-.44,1-.14.48,0,.15,0,0-.22.48-.7,1.38-.09.26-.29.55-.27.41-.31.39-.79,1.27L50.7,63.07l-.27.38-.69.7-.77.62-.85.56-.43.21-.48.15-.53.12h-.53l-.7-.07-.74-.32-.7-.57-.55-.7-.37-.82-.16-.63-.1-.48,0-.69-.07-.87-.05-.7.05-.43.22-.31.48-.27.33-.05.53-.21.48-.22.44-.22.36-.21.82-.48.41-.27.38-.26.79-.65.39-.32.31-.21.39-.32.31-.33.31-.36L50,54.4l.26-.43.37-.53.33-.6.22-.48.14-.41.17-.48.12-.7.1-.65v-.48l-.05-.48-.12-.48-.1-.44-.21-.48L51,47.33,50.63,47l-.32-.27L50,46.37l-.38-.27-.48-.17-1-.19h-.48l-1.49,0-.55.1-.48.12-.37.09-.48.17-.43.27-1.28.69-.86.53-.48.39-.39.26-.31.27-.7.69-.26.37-.65.77-.48.62h-.1l.1-.31.12-.48.14-.48.17-.44L39.17,48l.17-.48.22-.44.09-.48.17-.48.12-.48.1-.43.31-1,.17-.44.17-.48.14-.41.17-.48.17-.43.31-1,.31-.91.34-1,.15-.43.16-.49.17-.53.1-.31.22-.55.12-.48.14-.41.34-1,.14-.41.27-.48.12-.34.21-.48.1-.48-.14-.36-.39-.34-.53-.21-.34-.1-.57-.17-.48-.05h-.49l-.48.05-.38.34-.36.53-.27.65-.21.48-.22.41-.22.48-.17.43-.21.44-.15.43-.21.48-.17.43-.17.53-.1.32-.21.53-.1.38-.22.43-.21.53-.17.48-.15.44-.12.48-.16.48-.15.43-.12.48-.14.49-.12.48-.1.43-.34,1-.41,1.33-.16.48-.17.43-.32,1-.12.44-.31,1.44-.17.48-.07.34-.1-.08-.43,0-.48.22-.48.26-.31.17-.48.27-.61.21-.69.27-.58.22-1,.26-.34.12-.58.14-.48.12h-.6l-.31-.33v-.58l.17-.48.09-.48,0-.44L27,49.9l.1-.53.1-.69.12-.65.09-.48V47l.07-.34v-.58l.1-.43.05-.48.07-.53v-.48l-.12-1v-.48l-.05-.49-.05-.53-.07-.33-.05-.58-.16-.65-.1-.7-.22-1L26.68,38l-.14-.43-.43-.85-.22-.48-.22-.43-.26-.39L25.14,35l-.26-.36-.65-.75-.36-.33-.39-.27L23,32.94,22,32.41l-.58-.34-1-.31L20,31.54l-.68-.16-.65-.1-1.08-.05-.84-.12H15.52l-.65.05-.53.12-.65.17-.7.14-.48.17L11,32.51l-.75.43-.14.12A43.31,43.31,0,0,1,93.19,47Z"/><path class="cls-1" d="M93.29,50.84a42.79,42.79,0,0,1-2.77,14.49h-.1l-.53-.27-.26-.43,0-.7,0-.82.14-.89.17-.81.12-.58.1-.56.17-.62.21-.92.1-.48.17-.65,0-.31.09-.53.34-1,.1-.43.16-.49.22-1,.15-.48L92,53l.14-.43-.05-.48-.21-.32-.41-.26L90.64,51l-.48-.12-.48,0L89.2,51l-.53.26-.34.48-.14.53-.22.58-.34,1.08-.19.58-.17.48-.17.43-.21.48-.1.39-.22.48-.65,1.4-.21.31-.36.7-.34.57L84.22,61l-.27.37-.6.81-.27.36-.31.39-.26.36-.32.38-.38.32-.31.33-.75.63-.87.43-.48.17-.69,0-.65-.1-.49-.21L77.26,65,77,64.58l-.22-.43-.17-.48,0-.56V61.62l.17-1.44.15-.53.33-1.45.22-.43.19-.48.34-1,.26-.44.65-1.27.27-.43.26-.39.65-.74.27-.37.31-.38.39-.43.21-.22.41-.36L82,51l.36-.29.43-.27.38-.26.53-.31.53-.27,1.35-.48.7-.17.53,0,.38,0h1.06l.53.1.55.17.9.22.43.09.48.22.43.22L92,50l.41.29.48.26Z"/><path class="cls-1" d="M9.58,65.59,9,65.47l-.69-.14-.48-.17-.41-.22L7,64.68,6.26,64l-.32-.36-.29-.34-.31-.41-.43-.87-.15-.48-.21-.69L4.38,60l-.1-.7-.12-.48,0-.48v-1l0-.53v-.48l.09-1V55l0-.48L4.33,54l0-.48.1-.48.16-.7.17-.63.1-.48.17-.48.21-.43.22-.53.14-.34.29-.7.27-.62v-.48l-.27-.61-.43-.43-.43-.26-.44-.15-.48-.07-.57.17L3,46.63,2.77,47l-.27.43-.21.48-.22.43-.22.48-.19.41-.22.49-.21.6L.89,51.4.7,52l-.17.53L.41,53l-.1.43,0,.48-.12.53-.09,1v1.5l0,.48v1l.14,1.45.12.48,0,.48.1.48.34,1,.14.43.22.49.17.4.26.49.31.6.39.53.31.43.34.31.36.34.34.31L4,67l1.09.74.48.27.43.14.48.17.63.17,1.35.26.6.05.62.12H11C10.49,67.83,10,66.72,9.58,65.59Z"/><path class="cls-1" d="M56,58l.14-.22v-.05Z"/><path class="cls-1" d="M55.87,58.2l-.14.32.12-.22L56,58Z"/><path class="cls-1" d="M73,57l-.22.43v0l.22-.44.14-.43ZM100,56.71l-.43-.55-.63-.1-.48.27-1.08,2.14-.27.43-.21.41L96,60.61l-.09.31-.32.44-.29.43-.53.75-.62.74-.65.7-.39.38-.74.53-.48.27-.65.22-.7,0a30.46,30.46,0,0,1-1.35,3.17l.19,0h.53l.49-.1.48-.17.65-.26.57-.27.48-.26.44-.29,1.49-1.28.31-.31.34-.38.58-.75.33-.38.32-.41.31-.39.26-.43.22-.43.27-.41.28-.39.53-.84.22-.43.22-.48.21-.44.27-.38.26-.53.1-.27.26-.53.22-.48Zm-4.5-8.08-.31-.39-.39-.31-.36-.26L94,47.33,93.19,47c.1,1,.12,2,.12,3,0,.29,0,.55,0,.84l0,0,.43.16.44,0,.57-.39.61-.65.21-.74Z"/></svg>