<?xml version="1.0" encoding="UTF-8" standalone="no"?>
<svg
   xmlns:dc="http://purl.org/dc/elements/1.1/"
   xmlns:cc="http://creativecommons.org/ns#"
   xmlns:rdf="http://www.w3.org/1999/02/22-rdf-syntax-ns#"
   xmlns:svg="http://www.w3.org/2000/svg"
   xmlns="http://www.w3.org/2000/svg"
   xmlns:sodipodi="http://sodipodi.sourceforge.net/DTD/sodipodi-0.dtd"
   xmlns:inkscape="http://www.inkscape.org/namespaces/inkscape"
   inkscape:version="1.0 (4035a4fb49, 2020-05-01)"
   sodipodi:docname="rocket.svg"
   id="svg4"
   version="1.1"
   viewBox="0 0 24 24"
   enable-background="new 0 0 24 24">
  <metadata
     id="metadata10">
    <rdf:RDF>
      <cc:Work
         rdf:about="">
        <dc:format>image/svg+xml</dc:format>
        <dc:type
           rdf:resource="http://purl.org/dc/dcmitype/StillImage" />
      </cc:Work>
    </rdf:RDF>
  </metadata>
  <defs
     id="defs8" />
  <sodipodi:namedview
     inkscape:current-layer="svg4"
     inkscape:window-maximized="1"
     inkscape:window-y="-8"
     inkscape:window-x="-8"
     inkscape:cy="12"
     inkscape:cx="12"
     inkscape:zoom="18.916667"
     showgrid="false"
     id="namedview6"
     inkscape:window-height="705"
     inkscape:window-width="1366"
     inkscape:pageshadow="2"
     inkscape:pageopacity="0"
     guidetolerance="10"
     gridtolerance="10"
     objecttolerance="10"
     borderopacity="1"
     bordercolor="#666666"
     pagecolor="#ffffff"
     inkscape:document-rotation="0" />
  <path
     style="fill:#158269;fill-opacity:1;opacity:0.5"
     id="path2"
     d="M22.6,2.1c-0.1-0.3-0.4-0.6-0.7-0.7C17.7,0.3,13.4,1.6,10.5,5L9.4,6.3L6.7,5.7C5.4,5.2,4,5.8,3.4,7l-2.2,3.9c-0.2,0.3-0.2,0.6,0,0.9c0.1,0.3,0.4,0.5,0.7,0.6l3.1,0.7c-0.3,0.8-0.4,1.6-0.6,2.4c0,0.3,0.1,0.6,0.3,0.8l3.1,3.1c0.2,0.2,0.4,0.3,0.7,0.3c0,0,0.1,0,0.1,0c0.9-0.1,1.7-0.2,2.5-0.5l0.6,3c0.1,0.3,0.3,0.6,0.6,0.7c0.1,0.1,0.3,0.1,0.4,0.1c0.2,0,0.3,0,0.5-0.1l3.9-2.2c1.1-0.6,1.7-2,1.4-3.3l-0.7-2.8l1.2-1.1C22.3,10.7,23.7,6.2,22.6,2.1z M7.3,8.8c-0.6,0.8-1.2,1.6-1.6,2.4l-2.1-0.5L5.1,8c0.2-0.4,0.6-0.5,1.1-0.4L7.9,8L7.3,8.8z M16,18.9l-2.7,1.5l-0.4-2c0.9-0.4,1.7-1,2.4-1.6l0.7-0.7l0.4,1.7C16.6,18.3,16.3,18.8,16,18.9z M16.7,8.8c-0.8,0-1.5-0.7-1.5-1.5c0-0.8,0.7-1.5,1.5-1.5s1.5,0.7,1.5,1.5C18.2,8.1,17.6,8.8,16.7,8.8z"
     fill="#6563ff" />
</svg>
