<svg xmlns="http://www.w3.org/2000/svg" width="74.518" height="61.221" viewBox="0 0 74.518 61.221"><defs><style>.a{fill:#adb8b8;}</style></defs><g transform="translate(0 0)"><path class="a" d="M-1101.049-3752.481h-.021a17.642,17.642,0,0,1-12.528-5.168,17.618,17.618,0,0,1-5.211-12.591,17.6,17.6,0,0,1,5.278-12.628,17.772,17.772,0,0,1,5.647-3.751,17.614,17.614,0,0,1,6.813-1.363h.039a17.652,17.652,0,0,1,12.569,5.254,17.522,17.522,0,0,1,5.143,12.506,17.421,17.421,0,0,1-1.362,6.849,17.719,17.719,0,0,1-3.8,5.667A17.634,17.634,0,0,1-1101.049-3752.481Zm5.886-29.966a5.25,5.25,0,0,0-4.261,2.234l-.017.024-.016.023,0,.005a5.046,5.046,0,0,0-.9,2.7q0,.08,0,.161c0,.023,0,.045,0,.068s0,.045,0,.067,0,.044,0,.067a5.18,5.18,0,0,0,5.183,5.05,5.214,5.214,0,0,0,5.183-5.121c0-.023,0-.047,0-.071a5.152,5.152,0,0,0-2.506-4.461,5.165,5.165,0,0,0-2.652-.749Z" transform="translate(1138.321 3787.982)"/><path class="a" d="M858.56,677.762c-.059-.02-.076-.007-.094.024a2.739,2.739,0,0,1-1.927,1.3,4.792,4.792,0,0,1-3.939-.867,4.181,4.181,0,0,1-1.673-2.907,6.075,6.075,0,0,1,.541-3.521,5.192,5.192,0,0,1,3.77-2.931,6.082,6.082,0,0,1,2.129-.106A4.29,4.29,0,0,1,861,671.607a4.692,4.692,0,0,1,.35,1.763c-.013,1.78.063,3.558.094,5.337a5.508,5.508,0,0,1-.353,2.058,4.881,4.881,0,0,1-3.148,3.046,6.457,6.457,0,0,1-3.808.1,3.951,3.951,0,0,1-1.287-.6,2.138,2.138,0,0,1-.988-1.927c.014-.294,0-.589,0-.883,0-.058.013-.119.072-.138a.152.152,0,0,1,.152.055,3.367,3.367,0,0,0,.9.608,5.555,5.555,0,0,0,1.44.443,6.96,6.96,0,0,0,1.537.085,3.669,3.669,0,0,0,1.228-.254,2.128,2.128,0,0,0,1.352-1.645,3.861,3.861,0,0,0,.059-1.217C858.582,678.211,858.575,677.979,858.56,677.762Zm-.054-3.8a3.492,3.492,0,0,0-.265-1.537,1.926,1.926,0,0,0-1.987-1.185,2.365,2.365,0,0,0-2.035,1.284,3.263,3.263,0,0,0-.214,2.794,2.166,2.166,0,0,0,2.629,1.4,2.22,2.22,0,0,0,1.667-1.5,3.421,3.421,0,0,0,.206-1.252Z" transform="translate(-786.927 -625.266)"/><path class="a" d="M19.8,632.35c-.1-.009-.152-.087-.211-.143a4.728,4.728,0,0,0-2.724-1.191,7.441,7.441,0,0,0-1.844,0,3.573,3.573,0,0,0-1.208.335,1.545,1.545,0,0,0-.9,1.53,1.12,1.12,0,0,0,.4.845,2.489,2.489,0,0,0,.643.392,9.454,9.454,0,0,0,1.638.522c.476.114.957.213,1.429.343a5.465,5.465,0,0,1,1.778.836,3.215,3.215,0,0,1,1.407,2.253,4.4,4.4,0,0,1-2.9,4.975,7.586,7.586,0,0,1-3.23.385,6.734,6.734,0,0,1-1.608-.289,4.056,4.056,0,0,1-1.02-.482,2.418,2.418,0,0,1-1.12-2.053c-.008-.392,0-.785,0-1.177,0-.087.071-.125.139-.076.09.067.174.141.262.21a5.989,5.989,0,0,0,4.534,1.249,3.8,3.8,0,0,0,1.059-.253,1.53,1.53,0,0,0,.851-.773,2.1,2.1,0,0,0,.1-1.4,1.035,1.035,0,0,0-.421-.561,2.841,2.841,0,0,0-.706-.369,13.633,13.633,0,0,0-1.977-.552,10.5,10.5,0,0,1-1.5-.415,5.054,5.054,0,0,1-1.493-.842,3.146,3.146,0,0,1-1.153-2.8,4.578,4.578,0,0,1,3.009-4.009,5.4,5.4,0,0,1,1.958-.434,8.755,8.755,0,0,1,2.422.177,4.371,4.371,0,0,1,1.246.489,2.452,2.452,0,0,1,.953.982,1.69,1.69,0,0,1,.214.72c.013.49.017.98.021,1.471A.225.225,0,0,1,19.8,632.35Z" transform="translate(-10.008 -588.029)"/><path class="a" d="M272.434,675.908h-1.555c-.158,0-.2.055-.167.208a2.4,2.4,0,0,0,.512,1.045,3.074,3.074,0,0,0,1.749,1.011,5.62,5.62,0,0,0,1.715.058,5.71,5.71,0,0,0,1.275-.251,3.977,3.977,0,0,0,1.359-.734c.087-.076.173-.035.173.072a7.394,7.394,0,0,1-.043,1.217,2.07,2.07,0,0,1-.89,1.416,3.474,3.474,0,0,1-1.353.548,7.982,7.982,0,0,1-2.59.123,5.626,5.626,0,0,1-4.689-4.09,6.414,6.414,0,0,1-.195-2.205,7.823,7.823,0,0,1,.373-1.932,5.347,5.347,0,0,1,2.205-2.878,5.512,5.512,0,0,1,2.366-.8,4.923,4.923,0,0,1,2.585.369,4.2,4.2,0,0,1,2.548,3.079,3.878,3.878,0,0,1,.051,1.544,2.083,2.083,0,0,1-.934,1.434,3.849,3.849,0,0,1-1.242.5,10.41,10.41,0,0,1-2.04.249c-.406.012-.812,0-1.217,0Zm-.341-2.021a13.6,13.6,0,0,0,1.794-.087,3.262,3.262,0,0,0,.849-.217.784.784,0,0,0,.5-.756,1.526,1.526,0,0,0-.912-1.521,2.82,2.82,0,0,0-1.886-.152,2.3,2.3,0,0,0-1.559,1.41,3.327,3.327,0,0,0-.223,1.065c-.02.22,0,.252.214.254C271.263,673.89,271.655,673.887,272.094,673.887Z" transform="translate(-248.118 -625.245)"/><path class="a" d="M704.964,676.527v3.446c-.007.317-.012.324-.335.327a4.311,4.311,0,0,1-1-.066,1.824,1.824,0,0,1-1.45-1.309,2.321,2.321,0,0,1-.056-.668v-4.247a5.394,5.394,0,0,0-.141-1.293,2.528,2.528,0,0,0-.263-.662,1.762,1.762,0,0,0-.942-.8,2.529,2.529,0,0,0-1.53-.089,1.791,1.791,0,0,0-1.07.76,2.556,2.556,0,0,0-.407,1.093,6.766,6.766,0,0,0-.064.922q.005,2.944,0,5.887c0,.514.033.471-.482.471a4.063,4.063,0,0,1-.836-.055,1.773,1.773,0,0,1-1.5-1.632,4.431,4.431,0,0,1-.021-.462v-4.5a5.654,5.654,0,0,1,.247-1.783,4.454,4.454,0,0,1,2.982-3.013,5.761,5.761,0,0,1,3.435-.088,4.479,4.479,0,0,1,3.3,3.561,6.6,6.6,0,0,1,.135,1.423C704.968,674.677,704.964,675.6,704.964,676.527Z" transform="translate(-642.786 -625.123)"/><path class="a" d="M169.863,644.387V640.9a4.384,4.384,0,0,1,.037-.671,3.154,3.154,0,0,1,1.445-2.124,1.779,1.779,0,0,1,1.217-.216.135.135,0,0,1,.127.142c.005.1.005.2.005.294V640.3a.143.143,0,0,0,.152.161c.113,0,.224,0,.336,0h3.2c.273.006.279.011.284.288v.715a1.437,1.437,0,0,1-1.3,1.5,4.668,4.668,0,0,1-.629.039c-.519.005-1.037,0-1.556,0h-.294c-.136.008-.18.048-.189.172-.006.084,0,.168,0,.252v3.995a3.483,3.483,0,0,0,.1.958,1.417,1.417,0,0,0,1.351,1.131,4.409,4.409,0,0,0,2.3-.321c.156-.076.209-.04.211.123,0,.3.011.617,0,.925a1.7,1.7,0,0,1-1.074,1.573,2.567,2.567,0,0,1-.808.217,5.946,5.946,0,0,1-2.331-.187,3.372,3.372,0,0,1-2.411-2.516,5.466,5.466,0,0,1-.176-1.414V644.38Z" transform="translate(-157.704 -596.775)"/><path class="a" d="M526.109,628.144V622.26c0-.4-.013-.387.392-.385.211,0,.421,0,.63,0a2.11,2.11,0,0,1,.7.138,1.614,1.614,0,0,1,1.064,1.2,3.1,3.1,0,0,1,.072.75v9.161c0,.2,0,.393.013.588a1.149,1.149,0,0,0,.921,1.11,2.843,2.843,0,0,0,.747.1c.281,0,.56,0,.841,0,.094,0,.167.036.17.141a3.749,3.749,0,0,1-.076,1.127,1.293,1.293,0,0,1-.842.922,2.352,2.352,0,0,1-.608.138,4.853,4.853,0,0,1-1.868-.194,2.89,2.89,0,0,1-2.053-2.333,5.22,5.22,0,0,1-.093-1.087Q526.11,630.9,526.109,628.144Z" transform="translate(-486.867 -581.997)"/><path class="a" d="M426.483,678.594v3.281c0,.38,0,.38-.366.38a4.754,4.754,0,0,1-1.088-.076,1.646,1.646,0,0,1-1.334-1.141,2.222,2.222,0,0,1-.1-.663c0-1.766-.008-3.533.005-5.3a5.154,5.154,0,0,1,.456-2.164,3.669,3.669,0,0,1,2.889-2.177,4.487,4.487,0,0,1,1.673.007,2.281,2.281,0,0,1,.741.284,1.7,1.7,0,0,1,.852,1.458c.011.28.005.56,0,.841,0,.2-.055.236-.262.17-.094-.029-.185-.066-.278-.1a3.828,3.828,0,0,0-1.661-.146,1.551,1.551,0,0,0-1.319,1.03,2.49,2.49,0,0,0-.184.817c-.014.322-.025.644-.026.966C426.481,676.91,426.483,677.75,426.483,678.594Z" transform="translate(-392.149 -627.073)"/><path class="a" d="M613.567,679.526v-3.87c0-.373,0-.374.363-.38a4.952,4.952,0,0,1,1.005.06,1.677,1.677,0,0,1,1.4,1.337,3.477,3.477,0,0,1,.087.836q-.005,2.524,0,5.047c0,.182,0,.365.013.546a1.113,1.113,0,0,0,.968,1.1,4.672,4.672,0,0,0,.92.059c.375,0,.373,0,.371.37a4.247,4.247,0,0,1-.068.92,1.2,1.2,0,0,1-.967.988,2.7,2.7,0,0,1-.54.07,4.6,4.6,0,0,1-1.331-.152,2.781,2.781,0,0,1-2.042-2.033,4.661,4.661,0,0,1-.178-1.329v-3.574Z" transform="translate(-567.674 -631.334)"/><path class="a" d="M610.257,619.264a1.657,1.657,0,0,1,1.653-1.654,1.67,1.67,0,1,1,.016,3.339,1.657,1.657,0,0,1-1.669-1.686Z" transform="translate(-564.616 -578.057)"/><path class="a" d="M588.921,870.359a2.747,2.747,0,0,1,.228-.2.849.849,0,0,1,1.369.516,2,2,0,0,1,.04.291c0,.406,0,.813,0,1.216,0,.084,0,.179-.111.2a.247.247,0,0,1-.252-.118.422.422,0,0,1-.048-.244v-.925a1.117,1.117,0,0,0-.081-.452.432.432,0,0,0-.477-.265.423.423,0,0,0-.437.322,2.184,2.184,0,0,0-.048.456c-.007.337,0,.673,0,1.01,0,.082.009.177-.091.214a.25.25,0,0,1-.3-.17,1.442,1.442,0,0,1-.027-.291c0-.252,0-.5,0-.76a2.007,2.007,0,0,0-.047-.416.467.467,0,0,0-.494-.37.447.447,0,0,0-.456.36,1.456,1.456,0,0,0-.048.456c0,.351,0,.7-.006,1.052a.139.139,0,0,1-.2.125.312.312,0,0,1-.2-.333c0-.365-.008-.729.005-1.094a1.191,1.191,0,0,1,.1-.406.927.927,0,0,1,1.192-.5A1.457,1.457,0,0,1,588.921,870.359Z" transform="translate(-543.337 -811.229)"/><path class="a" d="M706.985,863.366c.021.076.09.1.143.136a.784.784,0,0,1-.039,1.237.837.837,0,0,1-.257.138,2.108,2.108,0,0,1-1.118.021.519.519,0,0,1-.4-.486,1.758,1.758,0,0,1-.008-.21v-1.85c0-.331,0-.335.341-.4a2.992,2.992,0,0,1,1-.019.755.755,0,0,1,.7.847.609.609,0,0,1-.183.411C707.105,863.249,707.014,863.276,706.985,863.366Zm-1.272.608v.209a.736.736,0,0,0,0,.084c.018.173.085.271.241.3a1.367,1.367,0,0,0,.742-.039.461.461,0,0,0,.3-.538.39.39,0,0,0-.353-.4,2.882,2.882,0,0,0-.5-.046c-.448-.005-.43-.021-.428.433Zm.47-.76a4.132,4.132,0,0,0,.456-.048.386.386,0,0,0,.3-.4.4.4,0,0,0-.257-.432,1.293,1.293,0,0,0-.532-.068c-.415.013-.442.039-.441.456,0,.511-.04.474.47.487Z" transform="translate(-652.436 -803.772)"/><path class="a" d="M316.856,863.5a2.319,2.319,0,0,1-.108.576,1.315,1.315,0,0,1-2.512-.052,1.95,1.95,0,0,1,.029-1.236,1.259,1.259,0,0,1,1.36-.886,1.244,1.244,0,0,1,1.164.977A1.984,1.984,0,0,1,316.856,863.5Zm-2.3-.1a1.563,1.563,0,0,0,.076.537.874.874,0,0,0,.9.669.86.86,0,0,0,.855-.666,1.818,1.818,0,0,0,0-.989.858.858,0,0,0-.885-.684.849.849,0,0,0-.874.639A1.344,1.344,0,0,0,314.557,863.4Z" transform="translate(-291.024 -803.774)"/><path class="a" d="M391.373,872.036a.355.355,0,0,1-.209.467,1.13,1.13,0,0,1-1.569-.6,1.4,1.4,0,0,1,.132-1.252,1,1,0,0,1,1.357-.355.794.794,0,0,1,.4.814.426.426,0,0,1-.256.357,1.171,1.171,0,0,1-.491.1c-.224,0-.448,0-.672.009a.112.112,0,0,0-.1.147.685.685,0,0,0,.646.508A1.413,1.413,0,0,0,391.373,872.036Zm-.871-.8c.067,0,.236-.007.4-.032a.22.22,0,0,0,.185-.278.39.39,0,0,0-.268-.344.631.631,0,0,0-.858.431c-.04.146,0,.216.148.222C390.206,871.239,390.3,871.235,390.5,871.235Z" transform="translate(-360.65 -811.406)"/><path class="a" d="M639.865,871.975a.436.436,0,0,1-.325.537,1.123,1.123,0,0,1-1.54-.861,1.382,1.382,0,0,1,.18-1.011,1.011,1.011,0,0,1,1.238-.443.83.83,0,0,1,.543.646.508.508,0,0,1-.394.639,2.109,2.109,0,0,1-.331.049c-.168.009-.337,0-.5.008-.093,0-.217-.04-.269.056-.068.126.015.242.1.34a.763.763,0,0,0,.718.258A1.465,1.465,0,0,0,639.865,871.975Zm-1.445-.793a3.507,3.507,0,0,0,.912,0c.218-.027.294-.2.195-.4a.449.449,0,0,0-.275-.239.62.62,0,0,0-.828.646Z" transform="translate(-590.224 -811.374)"/><path class="a" d="M739.5,870.714a.354.354,0,0,1,.135-.4,1.1,1.1,0,0,1,1.293-.015.654.654,0,0,1,.251.469,11.244,11.244,0,0,1,0,1.132.622.622,0,0,1-.432.568,1.187,1.187,0,0,1-.9-.006.648.648,0,0,1-.456-.637.667.667,0,0,1,.447-.648,1.607,1.607,0,0,1,.363-.093c.124-.019.251-.017.38-.026.168-.012.223-.084.19-.24a.369.369,0,0,0-.342-.317,1.092,1.092,0,0,0-.693.1C739.656,870.643,739.6,870.72,739.5,870.714Zm.977.7a.816.816,0,0,0-.519.111.33.33,0,0,0-.049.506.607.607,0,0,0,.624.106c.21-.067.251-.239.254-.43v-.125c-.008-.125-.045-.16-.184-.168C740.557,871.411,740.516,871.412,740.474,871.412Z" transform="translate(-683.928 -811.345)"/><path class="a" d="M804.889,861.7c.152-.017.186-.1.242-.159.173-.183.343-.369.515-.552a.532.532,0,0,1,.6-.152c0,.1-.076.126-.12.173-.2.211-.416.415-.616.63-.257.275-.257.228-.01.544a3.248,3.248,0,0,0,.757.777c.059.038.034.144-.033.172a.384.384,0,0,1-.43-.062,3.554,3.554,0,0,1-.318-.333c-.146-.17-.284-.346-.426-.519a.088.088,0,0,0-.106-.036c-.055.019-.046.067-.046.1-.005.252,0,.5-.012.755a.128.128,0,0,1-.184.1.233.233,0,0,1-.169-.169,1.3,1.3,0,0,1-.027-.249v-2.56c0-.086.01-.175.123-.182a.217.217,0,0,1,.233.141.764.764,0,0,1,.03.247v.924Z" transform="translate(-744.09 -802.002)"/><path class="a" d="M214.5,871.4a1.339,1.339,0,0,1-.087.513.956.956,0,0,1-.857.7,1.028,1.028,0,0,1-1.05-.549,1.43,1.43,0,0,1,.049-1.407.954.954,0,0,1,.921-.479.978.978,0,0,1,.9.594A1.369,1.369,0,0,1,214.5,871.4Zm-.414.021a1,1,0,0,0-.119-.544.634.634,0,0,0-1.055-.061A1.1,1.1,0,0,0,212.96,872a.633.633,0,0,0,.6.228.562.562,0,0,0,.474-.417A1.146,1.146,0,0,0,214.087,871.421Z" transform="translate(-196.961 -811.418)"/><path class="a" d="M554.111,871.353a1.462,1.462,0,0,1-.1.563.941.941,0,0,1-.836.666,1.024,1.024,0,0,1-1.012-.465,1.477,1.477,0,0,1,.064-1.586,1.056,1.056,0,0,1,1.737.161A1.5,1.5,0,0,1,554.111,871.353Zm-.413.052a1.1,1.1,0,0,0-.14-.582.633.633,0,0,0-1.033-.043,1.091,1.091,0,0,0,.033,1.184.614.614,0,0,0,1.076-.17,1.1,1.1,0,0,0,.063-.386Z" transform="translate(-510.752 -811.393)"/><path class="a" d="M247.649,871.6v-.588c0-.076.016-.144.1-.165a.232.232,0,0,1,.2.04.248.248,0,0,1,.1.176c.01.1.015.195.016.293,0,.224,0,.448,0,.671a1.75,1.75,0,0,0,.053.414.539.539,0,0,0,.69.38.433.433,0,0,0,.321-.3,1.533,1.533,0,0,0,.058-.456v-1.049c0-.07,0-.146.091-.165a.221.221,0,0,1,.2.041.332.332,0,0,1,.091.135.669.669,0,0,1,.033.205v1.007a1.234,1.234,0,0,1-.018.167.953.953,0,0,1-1.344.768.861.861,0,0,1-.532-.608,2.34,2.34,0,0,1-.063-.456c-.011-.167,0-.335,0-.5Z" transform="translate(-229.569 -812.035)"/><path class="a" d="M436.742,862.471c-.09,0-.14-.081-.21-.119a1.046,1.046,0,0,0-1.553.674,1.384,1.384,0,0,0,.1.9,1.026,1.026,0,0,0,1.264.553,1.465,1.465,0,0,0,.335-.17.076.076,0,0,1,.07,0,.1.1,0,0,1,.023.076.492.492,0,0,1-.24.376.857.857,0,0,1-.31.122,1.358,1.358,0,0,1-1.421-.6,1.647,1.647,0,0,1-.041-1.756,1.368,1.368,0,0,1,1.466-.677.641.641,0,0,1,.537.417A.206.206,0,0,1,436.742,862.471Z" transform="translate(-402.242 -803.708)"/><path class="a" d="M772.887,871.716v.63c0,.084-.005.173-.122.182a.219.219,0,0,1-.242-.126.7.7,0,0,1-.04-.246c-.005-.28,0-.56,0-.836a2.479,2.479,0,0,0-.036-.417.459.459,0,0,0-.443-.38.508.508,0,0,0-.57.255.843.843,0,0,0-.085.406v1.008a1.741,1.741,0,0,1-.014.251c-.011.062-.066.082-.126.084a.228.228,0,0,1-.228-.152.577.577,0,0,1-.035-.2q0-.525,0-1.049a1.032,1.032,0,0,1,1.458-.906.785.785,0,0,1,.456.658c.031.277.031.558.045.836Z" transform="translate(-713.082 -811.37)"/><path class="a" d="M469.7,871.664v-.671c0-.093.081-.139.175-.121a.252.252,0,0,1,.213.228,2.723,2.723,0,0,1,.015.334c.005.293,0,.588.015.88a.55.55,0,0,0,.4.532.5.5,0,0,0,.66-.346,1.457,1.457,0,0,0,.039-.373c.005-.349,0-.7,0-1.048,0-.081-.011-.176.1-.2a.24.24,0,0,1,.274.138.325.325,0,0,1,.032.12c0,.42.022.836-.007,1.258a.879.879,0,0,1-.941.871.9.9,0,0,1-.97-.845,6.562,6.562,0,0,1-.005-.754Z" transform="translate(-434.747 -812.059)"/><path class="a" d="M358.814,871.655c0,.252,0,.5,0,.756,0,.086-.076.111-.152.1a.234.234,0,0,1-.233-.2,1.617,1.617,0,0,1-.014-.251V871.3a2.907,2.907,0,0,0-.008-.293.557.557,0,0,0-.836-.449.468.468,0,0,0-.256.363,2.606,2.606,0,0,0-.021.38v1.008c0,.083,0,.176-.106.2a.239.239,0,0,1-.273-.144.545.545,0,0,1-.029-.163c0-.38-.014-.76,0-1.134a.988.988,0,0,1,1.412-.883.825.825,0,0,1,.514.76c.021.236,0,.475,0,.713Z" transform="translate(-330.505 -811.356)"/><path class="a" d="M502.241,871.952a2.221,2.221,0,0,0,.509.2.845.845,0,0,0,.494-.033.271.271,0,0,0,.185-.254.249.249,0,0,0-.152-.273c-.142-.056-.29-.1-.436-.143a2.554,2.554,0,0,1-.359-.113.511.511,0,0,1-.268-.669.71.71,0,0,1,.17-.286,1.054,1.054,0,0,1,1.17-.17.725.725,0,0,1,.188.163c.076.088.081.236.025.268-.076.045-.131-.017-.189-.044a1.1,1.1,0,0,0-.615-.087.475.475,0,0,0-.265.117.228.228,0,0,0,.036.38,1.872,1.872,0,0,0,.275.1c.159.052.323.091.478.152a.647.647,0,0,1,.141,1.08,1.153,1.153,0,0,1-1.188.087.5.5,0,0,1-.125-.11.4.4,0,0,1-.071-.152A1.179,1.179,0,0,1,502.241,871.952Z" transform="translate(-464.756 -811.354)"/><path class="a" d="M181.156,862.324a.925.925,0,0,1-.134.343,7.034,7.034,0,0,1-.627.988.775.775,0,0,0-.17.541c.011.252,0,.5,0,.756,0,.084-.008.175-.121.186a.246.246,0,0,1-.271-.152.855.855,0,0,1-.024-.207c0-.21-.009-.42,0-.63a.724.724,0,0,0-.146-.466,6.923,6.923,0,0,1-.7-1.242.894.894,0,0,1-.071-.2.092.092,0,0,1,.094-.11.334.334,0,0,1,.351.177c.076.135.131.278.206.412.129.232.265.461.4.684.059.1.128.09.195-.005a7.061,7.061,0,0,0,.541-.946,2.888,2.888,0,0,1,.132-.261c.054-.084.142-.076.228-.049A.164.164,0,0,1,181.156,862.324Z" transform="translate(-166.054 -803.985)"/><path class="a" d="M532.2,864.833c.092.132-.05.342.114.42a1.127,1.127,0,0,0,.413.029h.125c.085,0,.18,0,.183.119a.207.207,0,0,1-.152.228,2.088,2.088,0,0,1-.289.041c-.069.007-.14,0-.21.009s-.135.046-.136.127c0,.38-.014.756.005,1.132a.356.356,0,0,0,.39.354,1.754,1.754,0,0,0,.208-.021c.119-.011.176.061.145.172a.282.282,0,0,1-.195.2.7.7,0,0,1-.955-.544,1.136,1.136,0,0,1-.019-.208v-1.511a.64.64,0,0,1,.13-.432C532.025,864.873,532.095,864.8,532.2,864.833Z" transform="translate(-492.154 -806.474)"/><path class="a" d="M671.543,872.19c0-.182-.008-.364,0-.544a1.189,1.189,0,0,1,.138-.522.728.728,0,0,1,.864-.341.3.3,0,0,1,.214.321c0,.055-.024.11-.1.093a1.646,1.646,0,0,0-.246-.046.343.343,0,0,0-.417.312,2.388,2.388,0,0,0-.036.416c0,.35,0,.7,0,1.049,0,.07-.006.143-.084.173a.255.255,0,0,1-.262-.087.409.409,0,0,1-.07-.237v-.587Z" transform="translate(-621.239 -811.946)"/><path class="a" d="M281.7,872.171v-.544a1.047,1.047,0,0,1,.163-.557.713.713,0,0,1,.8-.309.3.3,0,0,1,.221.176.236.236,0,0,1,.018.2c-.043.085-.118.039-.182.024a.864.864,0,0,0-.124-.024c-.3-.023-.442.089-.475.395-.018.166-.011.335-.012.5,0,.3,0,.614-.008.922,0,.109-.086.159-.211.126a.242.242,0,0,1-.192-.243c-.007-.223,0-.447,0-.671Z" transform="translate(-261.042 -811.934)"/></g></svg>